#!OML:ASF I:\Actors\actors\Patient Classification 1\Patient 1\Session 1\Subject1.ASF
:FULLY-SPECIFIED
:DEGREES
989
root 0.640705 17.5568 8.94278 11.9329 -1.25822 -10.1082
lowerback 2.0417 2.99101 6.12277
upperback -6.70536 4.51358 1.44589
thorax -7.85434 1.8934 -2.27439
lowerneck -19.5429 -2.88372 -0.0428069
upperneck 26.4815 -5.88212 5.80821
head 12.1875 -1.85119 1.24412
rclavicle 4.28629e-016 2.8625e-014
rhumerus 37.1412 50.8188 -51.8861
rradius 49.0085
rwrist 25.8371
rhand 13.5495 -37.3493
rfingers 7.12502
rthumb 38.4846 296.985
lclavicle 4.28629e-016 2.8625e-014
lhumerus 33.0475 -49.7183 56.053
lradius 44.5584
lwrist 5.67558
lhand 3.94671 -0.261118
lfingers 7.12502
lthumb 29.3648 27.4393
rfemur -7.84693 27.3769 24.6334
rtibia 0.618875
rfoot -10.6829 -26.9219
rtoes 4.4087
lfemur 2.21343 -54.1135 -8.5452
ltibia -4.72844
lfoot -32.3234 60.3372
ltoes 17.7317
990
root 0.648301 17.5528 8.95595 11.9422 -1.23293 -10.0759
lowerback 2.199 2.89091 5.97063
upperback -6.86007 4.39874 1.54311
thorax -8.14245 1.83757 -2.09426
lowerneck -19.5669 -2.89855 -0.144779
upperneck 26.59 -5.88298 5.81823
head 12.2385 -1.85742 1.26568
rclavicle 1.23681e-014 0
rhumerus 36.2085 52.2879 -50.7424
rradius 51.6774
rwrist 24.3974
rhand 11.7904 -37.3547
rfingers 7.12502
rthumb 36.8224 296.535
lclavicle 1.23681e-014 0
lhumerus 32.1868 -51.3123 55.0357
lradius 47.1402
lwrist 8.76055
lhand 7.46142 -0.459667
lfingers 7.12502
lthumb 32.7148 26.6003
rfemur -7.76471 27.3006 24.6061
rtibia 0.570596
rfoot -10.765 -26.8961
rtoes 4.41677
lfemur 2.3404 -54.2235 -8.72006
ltibia -4.73874
lfoot -32.3197 60.4217
ltoes 17.6322
991
root 0.652888 17.5514 8.96356 11.9479 -1.16627 -10.1246
lowerback 2.22719 2.79122 5.9762
upperback -6.88052 4.27349 1.61249
thorax -8.19624 1.77589 -2.01672
lowerneck -19.6508 -2.91556 -0.17771
upperneck 26.5549 -5.89543 5.81398
head 12.2428 -1.86658 1.26623
rclavicle 3.83841e-014 -2.22639e-014
rhumerus 35.4921 53.5385 -49.3477
rradius 54.7383
rwrist 23.9101
rhand 11.2312 -37.8448
rfingers 7.12502
rthumb 36.2932 295.911
lclavicle 3.83841e-014 -2.22639e-014
lhumerus 31.7251 -52.9586 53.3599
lradius 50.1748
lwrist 11.421
lhand 9.59508 -0.52295
lfingers 7.12502
lthumb 34.7422 26.0929
rfemur -7.76296 27.3335 24.6652
rtibia 0.625693
rfoot -10.8374 -26.9857
rtoes 4.42894
lfemur 2.22288 -53.9171 -8.54644
ltibia -4.78719
lfoot -31.7767 60.1562
ltoes 17.4744
992
root 0.655021 17.5535 8.97021 11.9471 -1.10958 -10.1852
lowerback 2.2229 2.69175 5.97326
upperback -6.84947 4.14275 1.68978
thorax -8.17565 1.71571 -1.92228
lowerneck -19.7222 -2.88865 0.0260343
upperneck 26.4239 -5.82802 5.52225
head 12.1844 -1.85752 1.13079
rclavicle -1.41945e-014 -8.22969e-014
rhumerus 34.678 54.5672 -48.0773
rradius 58.0416
rwrist 23.8801
rhand 10.928 -37.9611
rfingers 7.12502
rthumb 36.006 295.724
lclavicle -1.41945e-014 -8.22969e-014
lhumerus 31.5512 -54.6517 51.2434
lradius 53.4378
lwrist 13.1676
lhand 10.0448 -0.698676
lfingers 7.12502
lthumb 35.1688 25.8178
rfemur -7.75384 27.4027 24.7493
rtibia 0.664875
rfoot -10.8705 -27.1059
rtoes 4.40227
lfemur 2.06564 -53.3839 -8.30274
ltibia -4.87873
lfoot -30.8764 59.7711
ltoes 17.1234
993
root 0.658367 17.554 8.98316 11.959 -1.17081 -10.1684
lowerback 2.18285 2.62395 5.87269
upperback -6.84587 4.04559 1.74949
thorax -8.16529 1.6771 -1.79397
lowerneck -19.7565 -2.85554 0.217184
upperneck 26.3281 -5.74368 5.20976
head 12.1318 -1.84483 0.993618
rclavicle -9.44227e-016 5.56597e-015
rhumerus 33.5961 55.5434 -47.1429
rradius 61.2796
rwrist 23.785
rhand 9.46169 -37.8388
rfingers 7.12502
rthumb 34.6156 295.516
lclavicle -9.44227e-016 5.56597e-015
lhumerus 31.3826 -56.3555 49.0869
lradius 56.7051
lwrist 13.7379
lhand 9.13206 -1.28886
lfingers 7.12502
lthumb 34.3027 25.4272
rfemur -7.68421 27.3485 24.7505
rtibia 0.61576
rfoot -10.8187 -27.0179
rtoes 4.06142
lfemur 2.17198 -53.2175 -8.42256
ltibia -4.92345
lfoot -30.6865 59.721
ltoes 16.983
994
root 0.663512 17.5509 9.0026 11.9611 -1.3301 -10.0576
lowerback 2.08469 2.59229 5.74333
upperback -6.85234 3.98491 1.72484
thorax -8.12396 1.65601 -1.73851
lowerneck -19.7669 -2.89105 0.249202
upperneck 26.2936 -5.77739 5.1211
head 12.1166 -1.86979 0.948947
rclavicle 2.42579e-014 2.38542e-014
rhumerus 32.1708 56.3396 -46.78
rradius 64.4873
rwrist 22.2972
rhand 7.1866 -38.3518
rfingers 7.12502
rthumb 32.4533 294.534
lclavicle 2.42579e-014 2.38542e-014
lhumerus 31.401 -57.9741 46.8215
lradius 59.7321
lwrist 13.2164
lhand 6.59473 -1.91687
lfingers 7.12502
lthumb 31.8898 25.3111
rfemur -7.5499 27.3049 24.6445
rtibia 0.514861
rfoot -10.7402 -26.8713
rtoes 3.58254
lfemur 2.53975 -53.5059 -8.92116
ltibia -4.89468
lfoot -31.5114 59.9361
ltoes 17.5078
